<?xml version="1.0" standalone="no"?>
<!DOCTYPE svg PUBLIC "-//W3C//DTD SVG 20010904//EN"
 "http://www.w3.org/TR/2001/REC-SVG-20010904/DTD/svg10.dtd">
<svg version="1.0" xmlns="http://www.w3.org/2000/svg"
 width="973.000000pt" height="256.000000pt" viewBox="0 0 973.000000 256.000000"
 preserveAspectRatio="xMidYMid meet">

<g transform="translate(0.000000,256.000000) scale(0.100000,-0.100000)"
fill="#000000" stroke="none">
<path d="M6097 1713 c-29 -3 -40 -10 -47 -29 -13 -34 -13 -795 0 -829 l10 -26
159 3 c151 3 161 4 184 26 45 42 80 138 85 227 4 83 2 89 -53 181 l-19 31 27
32 c37 44 45 84 36 166 -10 79 -51 170 -89 196 -19 13 -53 19 -140 22 -63 3
-132 3 -153 0z m229 -158 c22 -34 29 -96 14 -140 -15 -44 -60 -75 -112 -75
l-38 0 0 120 0 120 60 0 c52 0 62 -3 76 -25z m-11 -381 c39 -42 44 -103 16
-176 -10 -27 -14 -28 -76 -28 l-65 0 0 115 0 115 50 0 c42 0 55 -5 75 -26z"/>
<path d="M2493 1698 c-4 -7 -9 -198 -11 -424 -3 -377 -1 -413 14 -429 15 -15
36 -16 164 -13 166 3 186 10 221 79 69 137 64 271 -13 355 -19 22 -19 22 17
70 l37 48 -4 86 c-5 99 -34 177 -80 215 -29 24 -34 25 -183 25 -112 0 -156 -3
-162 -12z m280 -153 c35 -74 10 -173 -50 -196 -15 -5 -43 -9 -62 -7 l-36 3 -3
104 c-1 58 0 111 2 118 4 9 26 13 69 13 63 0 63 0 80 -35z m-30 -357 c42 -22
59 -119 33 -183 l-15 -35 -70 0 -71 0 0 114 c0 83 3 116 13 119 17 6 88 -4
110 -15z"/>
<path d="M3742 1702 c-13 -8 -48 -195 -127 -671 -26 -158 -27 -165 -9 -178 24
-18 89 -17 107 2 8 8 18 38 22 67 14 98 15 99 97 96 l73 -3 12 -65 c21 -108
21 -107 52 -113 35 -7 87 8 95 28 6 16 -127 822 -138 832 -11 11 -169 15 -184
5z m117 -408 c12 -71 21 -133 21 -137 0 -4 -22 -7 -50 -7 -45 0 -50 2 -50 22
0 45 43 269 51 261 4 -4 17 -67 28 -139z"/>
<path d="M4247 1692 c-15 -17 -17 -62 -17 -435 l0 -416 37 -7 c20 -4 48 -3 62
2 l26 9 3 210 c1 116 5 217 8 225 8 21 24 -13 115 -239 43 -107 84 -198 91
-202 33 -22 103 0 112 35 11 39 7 796 -4 817 -8 15 -21 19 -58 19 -27 0 -53
-5 -60 -12 -9 -9 -12 -74 -12 -232 0 -122 -4 -216 -9 -210 -7 8 -78 170 -151
347 -18 42 -42 84 -53 92 -29 20 -70 19 -90 -3z"/>
<path d="M5005 1691 c-48 -23 -88 -60 -112 -104 -16 -28 -18 -66 -21 -282 -4
-300 1 -337 61 -400 92 -95 260 -96 332 -1 14 18 32 61 41 96 16 64 16 64 -6
82 -25 20 -56 23 -94 8 -20 -7 -26 -17 -26 -38 0 -47 -34 -82 -81 -82 -47 0
-75 24 -84 72 -3 18 -5 136 -3 261 l3 229 29 25 c23 20 37 24 64 20 45 -8 60
-22 68 -66 9 -50 21 -61 64 -61 60 0 70 7 70 50 0 83 -50 168 -117 196 -46 20
-140 17 -188 -5z"/>
<path d="M5572 1697 c-42 -13 -98 -75 -111 -124 -7 -22 -11 -148 -11 -308 0
-263 1 -271 24 -321 26 -57 61 -86 121 -103 87 -24 166 -8 225 45 62 56 65 74
65 394 0 272 -1 287 -21 325 -27 49 -49 70 -97 90 -41 17 -145 19 -195 2z
m153 -148 c19 -18 20 -35 23 -264 3 -206 1 -249 -13 -274 -26 -52 -94 -55
-129 -8 -20 27 -21 43 -24 250 -4 255 2 291 51 312 37 16 63 11 92 -16z"/>
<path d="M6764 1691 c-51 -23 -89 -71 -104 -132 -8 -30 -10 -135 -8 -315 l3
-269 28 -48 c39 -67 90 -91 187 -92 93 0 152 29 190 97 25 42 25 47 28 312 3
181 0 284 -8 315 -15 61 -53 109 -104 132 -55 25 -157 25 -212 0z m164 -147
c22 -25 22 -30 22 -275 l0 -250 -25 -24 c-34 -35 -86 -34 -114 1 -20 25 -21
39 -21 273 0 210 2 250 16 269 33 47 82 49 122 6z"/>
<path d="M7334 1691 c-49 -22 -88 -70 -103 -126 -7 -24 -11 -141 -11 -291 0
-289 7 -328 67 -386 47 -45 99 -61 172 -56 78 6 129 34 166 93 l30 48 3 272
c4 286 0 325 -41 386 -49 74 -188 103 -283 60z m136 -121 c5 0 18 -10 30 -22
19 -21 20 -34 20 -274 0 -239 -1 -253 -21 -278 -28 -35 -80 -36 -114 -1 l-25
24 0 254 c0 250 0 254 23 274 26 24 47 33 65 27 8 -2 18 -4 22 -4z"/>
<path d="M7838 1699 c-17 -9 -18 -41 -18 -429 0 -404 1 -420 19 -430 27 -14
84 -13 104 3 14 10 17 35 19 150 l3 138 84 -151 84 -152 35 5 c43 8 82 33 82
54 0 9 -15 44 -33 77 -19 34 -64 116 -102 183 l-67 123 101 184 c56 101 101
191 101 200 0 23 -60 57 -94 54 -27 -3 -37 -16 -105 -140 -42 -75 -79 -140
-83 -144 -5 -4 -8 52 -8 124 0 105 -3 134 -16 146 -17 18 -80 21 -106 5z"/>
<path d="M8505 1695 c-77 -35 -115 -101 -115 -197 0 -96 30 -149 154 -276 132
-135 151 -178 101 -227 -44 -45 -94 -30 -123 37 -13 32 -47 43 -98 33 l-36 -6
4 -48 c9 -95 106 -181 202 -181 122 1 230 126 210 243 -13 80 -42 125 -149
236 -108 113 -125 139 -125 196 0 73 99 104 128 40 13 -28 66 -42 109 -27 24
8 28 14 25 43 -4 47 -45 105 -92 129 -47 24 -149 27 -195 5z"/>
<path d="M3127 1694 c-4 -4 -7 -198 -7 -430 l0 -424 23 -5 c12 -3 85 -4 162
-3 l140 3 8 40 c5 25 5 50 -2 68 -10 27 -12 27 -101 27 -79 0 -90 2 -91 18 -1
9 -1 157 0 327 1 171 -2 326 -7 345 -8 34 -9 35 -63 38 -30 2 -58 0 -62 -4z"/>
<path d="M2022 1340 c0 -14 2 -19 5 -12 2 6 2 18 0 25 -3 6 -5 1 -5 -13z"/>
<path d="M1438 643 c7 -3 16 -2 19 1 4 3 -2 6 -13 5 -11 0 -14 -3 -6 -6z"/>
</g>
</svg>
