<?xml version="1.0" encoding="UTF-8"?>
<svg version="1.1" xmlns="http://www.w3.org/2000/svg" width="500" height="500">
<path d="M0 0 C165 0 330 0 500 0 C500 165 500 330 500 500 C335 500 170 500 0 500 C0 335 0 170 0 0 Z " fill="#FEFEFE" transform="translate(0,0)"/>
<path d="M0 0 C0.68336426 0.20367187 1.36672852 0.40734375 2.07080078 0.6171875 C36.2293316 11.28195646 63.28636864 35.37947027 80.3125 66.5 C96.26298031 96.97309667 100.67969132 135.85680054 91 169 C90.81808105 169.65726074 90.63616211 170.31452148 90.44873047 170.99169922 C86.20129516 186.08736519 79.28817451 200.38279661 70 213 C69.42121094 213.80179688 68.84242188 214.60359375 68.24609375 215.4296875 C49.99235596 239.47888847 25.04959259 256.03269693 -4 264 C-5.17433594 264.33902344 -6.34867188 264.67804688 -7.55859375 265.02734375 C-27.61765155 269.79494018 -52.30166849 268.87549773 -72 263 C-72.68336426 262.79632813 -73.36672852 262.59265625 -74.07080078 262.3828125 C-108.2293316 251.71804354 -135.28636864 227.62052973 -152.3125 196.5 C-168.26298031 166.02690333 -172.67969132 127.14319946 -163 94 C-162.81808105 93.34273926 -162.63616211 92.68547852 -162.44873047 92.00830078 C-158.20129516 76.91263481 -151.28817451 62.61720339 -142 50 C-141.42121094 49.19820312 -140.84242188 48.39640625 -140.24609375 47.5703125 C-121.99235596 23.52111153 -97.04959259 6.96730307 -68 -1 C-66.82566406 -1.33902344 -65.65132813 -1.67804687 -64.44140625 -2.02734375 C-44.38234845 -6.79494018 -19.69833151 -5.87549773 0 0 Z " fill="#8DB5BD" transform="translate(286,39)"/>
<path d="M0 0 C1.10875488 -0.00953201 2.21750977 -0.01906403 3.35986328 -0.02888489 C5.16753174 -0.02751778 5.16753174 -0.02751778 7.01171875 -0.02612305 C8.25034668 -0.03040817 9.48897461 -0.0346933 10.76513672 -0.03910828 C13.394837 -0.04486374 16.02414655 -0.04627472 18.65380859 -0.04101562 C21.33659708 -0.03640171 24.01893065 -0.04322557 26.70166016 -0.06152344 C30.57598565 -0.08615954 34.44982428 -0.09017278 38.32421875 -0.08862305 C40.10759644 -0.10243767 40.10759644 -0.10243767 41.92700195 -0.11653137 C53.19261406 -0.05465055 63.35148063 2.10537055 71.64453125 10.1652832 C79.41017397 18.67824718 81.11942044 26.6175591 80.96484375 37.96606445 C80.07148813 49.09359696 73.26640816 55.7074688 65.69921875 63.2746582 C66.20710938 63.66395508 66.715 64.05325195 67.23828125 64.4543457 C73.9440927 69.90438722 79.48858443 76.47124124 80.69921875 85.2746582 C81.58015373 97.10229339 80.22973967 105.34762199 72.63671875 114.5871582 C66.2752255 121.27461227 58.17876618 124.95980521 48.94746399 125.40837097 C47.95200058 125.41218277 46.95653717 125.41599457 45.9309082 125.41992188 C44.79655838 125.42630173 43.66220856 125.43268158 42.4934845 125.43925476 C40.67139717 125.440924 40.67139717 125.440924 38.8125 125.44262695 C37.55914352 125.44595535 36.30578705 125.44928375 35.01445007 125.45271301 C32.36921627 125.45777031 29.72408531 125.46055482 27.07885742 125.45996094 C23.68583678 125.45985889 20.29302342 125.47356368 16.90005207 125.49073315 C13.66254232 125.50449686 10.42503506 125.50394061 7.1875 125.50512695 C5.96670242 125.51231247 4.74590485 125.51949799 3.4881134 125.52690125 C1.80077339 125.5222863 1.80077339 125.5222863 0.0793457 125.51757812 C-0.91373093 125.51900314 -1.90680756 125.52042816 -2.92997742 125.52189636 C-5.30078125 125.2746582 -5.30078125 125.2746582 -7.30078125 123.2746582 C-7.55246353 121.14444733 -7.55246353 121.14444733 -7.55474854 118.45397949 C-7.56038818 117.43600784 -7.56602783 116.41803619 -7.57183838 115.36921692 C-7.56778992 114.2481102 -7.56374146 113.12700348 -7.55957031 111.97192383 C-7.56307495 110.79466232 -7.56657959 109.61740082 -7.57019043 108.40446472 C-7.57749891 105.17102579 -7.57576572 101.93774984 -7.56943226 98.70431328 C-7.56437795 95.32464117 -7.56906212 91.94498015 -7.57220459 88.56530762 C-7.5758459 82.88914019 -7.57104083 77.21302477 -7.56152344 71.53686523 C-7.55063854 64.96917443 -7.554164 58.40160779 -7.56517625 51.83392 C-7.57424444 46.2007632 -7.57553671 40.56764384 -7.57029891 34.9344821 C-7.56717662 31.56753217 -7.56677692 28.20064066 -7.57337189 24.83369446 C-7.57842749 21.08150734 -7.5707403 17.32956163 -7.55957031 13.57739258 C-7.56361877 12.45628586 -7.56766724 11.33517914 -7.57183838 10.18009949 C-7.56619873 9.16212784 -7.56055908 8.14415619 -7.55474854 7.09533691 C-7.55399448 6.20748253 -7.55324043 5.31962814 -7.55246353 4.40486908 C-6.99875855 -0.28162842 -3.95887052 0.01865046 0 0 Z " fill="#08090A" transform="translate(204.30078125,97.725341796875)"/>
<path d="M0 0 C9.4169977 1.26431914 15.82146324 5.71028 21.6796875 13.12109375 C27.61919357 21.57346777 28.55649382 30.90789488 27 41 C24.52753201 48.87170904 20.19351019 54.66847319 14 60 C13.01 60.99 13.01 60.99 12 62 C12.51949219 62.4125 13.03898437 62.825 13.57421875 63.25 C20.82132184 69.25129794 26.37396429 76.16703265 27.40625 85.78515625 C27.79764852 96.56057158 26.20045754 104.4697451 19.2890625 113.1484375 C13.32639009 119.5427966 5.91471612 123.61932056 -2.88858032 124.18591309 C-6.43378357 124.26443306 -9.97347135 124.27712689 -13.51953125 124.265625 C-14.81444992 124.26753845 -16.10936859 124.2694519 -17.44352722 124.27142334 C-20.17097801 124.27435812 -22.89829704 124.27012687 -25.62573242 124.26074219 C-29.12408965 124.24929161 -32.62214185 124.2559525 -36.12048817 124.26788712 C-39.46186063 124.27683408 -42.80315011 124.27058074 -46.14453125 124.265625 C-47.40280228 124.26967346 -48.6610733 124.27372192 -49.95747375 124.27789307 C-51.11595322 124.27158875 -52.27443268 124.26528442 -53.46801758 124.25878906 C-54.49059158 124.25719788 -55.51316559 124.25560669 -56.56672668 124.25396729 C-59 124 -59 124 -61 122 C-61.22705078 119.56982422 -61.22705078 119.56982422 -61.1953125 116.5546875 C-61.18886719 115.47832031 -61.18242187 114.40195313 -61.17578125 113.29296875 C-61.15902344 112.16503906 -61.14226562 111.03710938 -61.125 109.875 C-61.11597656 108.73933594 -61.10695312 107.60367188 -61.09765625 106.43359375 C-61.07403098 103.62218701 -61.04109013 100.81119702 -61 98 C-60.08299316 97.98541748 -59.16598633 97.97083496 -58.22119141 97.95581055 C-54.77287775 97.89424129 -51.32529547 97.81999915 -47.87744141 97.73754883 C-46.39381957 97.70458303 -44.91008085 97.67646583 -43.42626953 97.65356445 C-30.69053384 97.4517507 -19.1509359 96.37735171 -9.3125 87.47265625 C-3.18468494 80.96185275 -0.78220672 73.80218849 -0.5625 64.9375 C-0.89076381 55.16370987 -3.40922934 48.2703945 -10 41 C-11.93267286 39.194419 -13.89201245 37.60608575 -16 36 C-14.948125 34.9790625 -14.948125 34.9790625 -13.875 33.9375 C-12.91303077 32.96190514 -11.95499491 31.98242296 -11 31 C-10.49597656 30.49210937 -9.99195313 29.98421875 -9.47265625 29.4609375 C-1.45271081 20.84918947 -0.32993721 11.44882112 0 0 Z " fill="#FAFBFB" transform="translate(285,125)"/>
<path d="M0 0 C7.24180949 -0.11511177 14.48041492 -0.21456064 21.72241211 -0.2746582 C24.18313382 -0.29972306 26.64378166 -0.33378402 29.10424805 -0.37719727 C32.65171589 -0.43819965 36.19819506 -0.46629147 39.74609375 -0.48828125 C41.38257118 -0.52699089 41.38257118 -0.52699089 43.05210876 -0.56648254 C51.41633811 -0.56951868 57.09648615 1.50052264 63.33984375 7.09765625 C64.13068359 8.07025391 64.13068359 8.07025391 64.9375 9.0625 C65.48277344 9.71347656 66.02804687 10.36445312 66.58984375 11.03515625 C71.20291354 17.46278535 70.87500046 24.38052695 70 32 C67.47801372 38.96463115 63.31333114 43.32678915 57 47 C53.4001717 48.67941081 50.62270414 49.24633919 46.65893555 49.22705078 C45.09788338 49.22682419 45.09788338 49.22682419 43.5052948 49.22659302 C41.83784966 49.21110916 41.83784966 49.21110916 40.13671875 49.1953125 C38.98959915 49.1924826 37.84247955 49.18965271 36.66059875 49.18673706 C33.00279232 49.17555697 29.34523222 49.15045595 25.6875 49.125 C23.20508167 49.11496741 20.72265949 49.10584205 18.24023438 49.09765625 C12.15998537 49.07732777 6.0802679 49.03817399 0 49 C0 32.83 0 16.66 0 0 Z " fill="#8DB5BD" transform="translate(206,107)"/>
<path d="M0 0 C7.25975431 -0.09202505 14.51747006 -0.17160969 21.77734375 -0.21972656 C24.24486158 -0.23979295 26.71233215 -0.26705244 29.1796875 -0.30175781 C32.73449393 -0.35049306 36.28866944 -0.37301939 39.84375 -0.390625 C41.48796936 -0.42159271 41.48796936 -0.42159271 43.16540527 -0.45318604 C50.9500367 -0.45544647 55.95162037 0.86161013 62.20703125 5.7109375 C67.62745334 11.32918521 70.14461782 15.37613061 70.375 23.375 C70.12792178 32.07215343 68.35913135 37.19230629 62.20703125 43.359375 C54.76453813 48.89184776 48.90669566 49.56131919 39.84375 49.390625 C38.12943787 49.38213531 38.12943787 49.38213531 36.38049316 49.37347412 C32.75322448 49.35119848 29.12696691 49.30101625 25.5 49.25 C23.03126433 49.22992371 20.56251308 49.21167493 18.09375 49.1953125 C12.06180314 49.15477522 6.03202475 49.07646229 0 49 C0 32.83 0 16.66 0 0 Z " fill="#FAFBFB" transform="translate(206,165)"/>
<path d="M0 0 C0.33 0 0.66 0 1 0 C1 1.051875 1 2.10375 1 3.1875 C1.57972994 6.92554519 1.57972994 6.92554519 3.63671875 8.33203125 C5.03822809 9.13022419 6.44754665 9.914819 7.86328125 10.6875 C12.90151853 13.78228561 16.20766958 18.41933481 18 24 C18.83737091 31.60449627 18.86780906 38.79592963 14 45 C9.11525258 50.24501079 3.73064385 54.52241245 -3.59648132 55.26213074 C-6.68191645 55.34617657 -9.75357738 55.33723947 -12.83984375 55.29296875 C-13.96193741 55.28872391 -15.08403107 55.28447906 -16.24012756 55.28010559 C-19.80616767 55.26338097 -23.37163215 55.22573922 -26.9375 55.1875 C-29.36262202 55.17244517 -31.78775294 55.15875817 -34.21289062 55.14648438 C-40.14214716 55.11349764 -46.07097615 55.06175737 -52 55 C-52 49.39 -52 43.78 -52 38 C-49.68355469 37.94392578 -49.68355469 37.94392578 -47.3203125 37.88671875 C-45.25518602 37.82101018 -43.19008289 37.75456458 -41.125 37.6875 C-39.60519531 37.65366211 -39.60519531 37.65366211 -38.0546875 37.61914062 C-26.43978756 37.20964095 -15.92717282 34.50074612 -7.75 25.8125 C-1.63054103 18.07563634 -0.33119466 9.63776471 0 0 Z " fill="#8EB5BE" transform="translate(285,185)"/>
<path d="M0 0 C1.13759766 -0.02900391 2.27519531 -0.05800781 3.44726562 -0.08789062 C9.86798092 -0.13661759 14.02354144 -0.16294246 18.8125 4.3125 C22.3072587 7.9919711 22.30674737 10.93095736 22.18359375 15.828125 C21.63040497 19.53157833 20.20165428 21.47537929 17.8125 24.3125 C19.01631448 26.80611571 20.26678722 28.99393083 21.8125 31.3125 C22.46067054 35.65865406 22.81715176 40.2791809 20.83203125 44.296875 C18.55345351 47.12932241 16.16259461 48.99507222 12.8125 50.3125 C10.0793457 50.55541992 10.0793457 50.55541992 6.98828125 50.54296875 C5.87775391 50.54103516 4.76722656 50.53910156 3.62304688 50.53710938 C1.89151367 50.51874023 1.89151367 50.51874023 0.125 50.5 C-1.62393555 50.4990332 -1.62393555 50.4990332 -3.40820312 50.49804688 C-12.04723635 50.45276365 -12.04723635 50.45276365 -13.1875 49.3125 C-13.28581146 47.81379952 -13.31548456 46.31051461 -13.31689453 44.80859375 C-13.32004669 43.85090088 -13.32319885 42.89320801 -13.32644653 41.90649414 C-13.3244223 40.86485107 -13.32239807 39.82320801 -13.3203125 38.75 C-13.32126923 37.68837646 -13.32222595 36.62675293 -13.32321167 35.53295898 C-13.32389364 33.28336528 -13.32203819 31.03376963 -13.31787109 28.78417969 C-13.3125231 25.32742929 -13.31781554 21.87080883 -13.32421875 18.4140625 C-13.32355797 16.23437471 -13.32227682 14.054687 -13.3203125 11.875 C-13.32233673 10.83335693 -13.32436096 9.79171387 -13.32644653 8.71850586 C-13.32329437 7.76081299 -13.32014221 6.80312012 -13.31689453 5.81640625 C-13.31609894 4.96892822 -13.31530334 4.1214502 -13.31448364 3.24829102 C-12.96781429 -2.03647955 -3.94528542 0.03296896 0 0 Z " fill="#171717" transform="translate(145.1875,355.6875)"/>
<path d="M0 0 C1.13759766 -0.02900391 2.27519531 -0.05800781 3.44726562 -0.08789062 C9.86798092 -0.13661759 14.02354144 -0.16294246 18.8125 4.3125 C22.3072587 7.9919711 22.30674737 10.93095736 22.18359375 15.828125 C21.63040497 19.53157833 20.20165428 21.47537929 17.8125 24.3125 C19.01631448 26.80611571 20.26678722 28.99393083 21.8125 31.3125 C22.46067054 35.65865406 22.81715176 40.2791809 20.83203125 44.296875 C18.55345351 47.12932241 16.16259461 48.99507222 12.8125 50.3125 C10.0793457 50.55541992 10.0793457 50.55541992 6.98828125 50.54296875 C5.87775391 50.54103516 4.76722656 50.53910156 3.62304688 50.53710938 C1.89151367 50.51874023 1.89151367 50.51874023 0.125 50.5 C-1.62393555 50.4990332 -1.62393555 50.4990332 -3.40820312 50.49804688 C-12.04723635 50.45276365 -12.04723635 50.45276365 -13.1875 49.3125 C-13.28581146 47.81379952 -13.31548456 46.31051461 -13.31689453 44.80859375 C-13.32004669 43.85090088 -13.32319885 42.89320801 -13.32644653 41.90649414 C-13.3244223 40.86485107 -13.32239807 39.82320801 -13.3203125 38.75 C-13.32126923 37.68837646 -13.32222595 36.62675293 -13.32321167 35.53295898 C-13.32389364 33.28336528 -13.32203819 31.03376963 -13.31787109 28.78417969 C-13.3125231 25.32742929 -13.31781554 21.87080883 -13.32421875 18.4140625 C-13.32355797 16.23437471 -13.32227682 14.054687 -13.3203125 11.875 C-13.32233673 10.83335693 -13.32436096 9.79171387 -13.32644653 8.71850586 C-13.32329437 7.76081299 -13.32014221 6.80312012 -13.31689453 5.81640625 C-13.31609894 4.96892822 -13.31530334 4.1214502 -13.31448364 3.24829102 C-12.96781429 -2.03647955 -3.94528542 0.03296896 0 0 Z " fill="#181818" transform="translate(120.1875,303.6875)"/>
<path d="M0 0 C1.49609375 1.16796875 1.49609375 1.16796875 2.49609375 4.16796875 C3.15609375 4.16796875 3.81609375 4.16796875 4.49609375 4.16796875 C4.49609375 1.85796875 4.49609375 -0.45203125 4.49609375 -2.83203125 C5.48609375 -2.83203125 6.47609375 -2.83203125 7.49609375 -2.83203125 C7.49609375 9.37796875 7.49609375 21.58796875 7.49609375 34.16796875 C6.50609375 34.49796875 5.51609375 34.82796875 4.49609375 35.16796875 C4.00109375 31.70296875 4.00109375 31.70296875 3.49609375 28.16796875 C2.58859375 28.95171875 1.68109375 29.73546875 0.74609375 30.54296875 C-3.77254946 34.44543334 -7.27306329 35.5735615 -13.1953125 35.41796875 C-19.40529702 34.74548312 -23.57758892 31.85773667 -27.50390625 27.16796875 C-30.95806152 22.04629024 -31.33663117 17.1635882 -30.50390625 11.16796875 C-28.47576285 4.80003463 -25.10133356 1.2236415 -19.31640625 -2.08203125 C-12.32997455 -3.9450797 -6.37784629 -3.34933176 0 0 Z " fill="#FAFAFA" transform="translate(235.50390625,318.83203125)"/>
<path d="M0 0 C4.16795036 3.17690439 6.76859606 7.2076713 7.7578125 12.33984375 C8.56151117 18.44795365 7.74701822 22.55945398 4.1875 27.6171875 C0.93320855 31.53834195 -3.20307226 34.90728946 -8.35546875 35.640625 C-15.01107839 35.67609006 -19.76901422 34.41955764 -24.9921875 30.02734375 C-29.36524957 24.80396405 -30.81723635 20.61631809 -30.59375 13.87109375 C-29.850732 8.52136412 -27.63833903 4.70019652 -23.8046875 0.96484375 C-16.2777124 -3.80835997 -7.90555007 -4.49688172 0 0 Z " fill="#FAFAFA" transform="translate(260.2421875,370.66015625)"/>
<path d="M0 0 C4.16795036 3.17690439 6.76859606 7.2076713 7.7578125 12.33984375 C8.56151117 18.44795365 7.74701822 22.55945398 4.1875 27.6171875 C0.93320855 31.53834195 -3.20307226 34.90728946 -8.35546875 35.640625 C-15.01107839 35.67609006 -19.76901422 34.41955764 -24.9921875 30.02734375 C-29.36524957 24.80396405 -30.81723635 20.61631809 -30.59375 13.87109375 C-29.850732 8.52136412 -27.63833903 4.70019652 -23.8046875 0.96484375 C-16.2777124 -3.80835997 -7.90555007 -4.49688172 0 0 Z " fill="#FAFAFA" transform="translate(211.2421875,370.66015625)"/>
<path d="M0 0 C4.16795036 3.17690439 6.76859606 7.2076713 7.7578125 12.33984375 C8.56151117 18.44795365 7.74701822 22.55945398 4.1875 27.6171875 C0.93320855 31.53834195 -3.20307226 34.90728946 -8.35546875 35.640625 C-15.01107839 35.67609006 -19.76901422 34.41955764 -24.9921875 30.02734375 C-29.36524957 24.80396405 -30.81723635 20.61631809 -30.59375 13.87109375 C-29.850732 8.52136412 -27.63833903 4.70019652 -23.8046875 0.96484375 C-16.2777124 -3.80835997 -7.90555007 -4.49688172 0 0 Z " fill="#FAFAFA" transform="translate(384.2421875,318.66015625)"/>
<path d="M0 0 C0.33 0 0.66 0 1 0 C1 2.64 1 5.28 1 8 C1.74121094 8.10183594 2.48242188 8.20367187 3.24609375 8.30859375 C8.49127457 9.62546893 12.12823763 13.617283 15.40234375 17.78515625 C18.94713691 23.72678465 18.80713001 30.29073178 18 37 C16.23745822 43.675627 11.57412654 48.15909515 6 52 C2.5625 53.3125 2.5625 53.3125 0 54 C-0.33 54.66 -0.66 55.32 -1 56 C-1.14695312 55.443125 -1.29390625 54.88625 -1.4453125 54.3125 C-4.04435201 45.46979088 -8.72663087 39.54161458 -16 34 C-14.948125 32.9790625 -14.948125 32.9790625 -13.875 31.9375 C-12.91303077 30.96190514 -11.95499491 29.98242296 -11 29 C-10.49597656 28.49210937 -9.99195313 27.98421875 -9.47265625 27.4609375 C-2.03240458 19.47165963 -0.36653441 10.66615137 0 0 Z " fill="#8DB5BD" transform="translate(285,127)"/>
<path d="M0 0 C5.94 0 11.88 0 18 0 C18 16.17 18 32.34 18 49 C12.06 49 6.12 49 0 49 C0 32.83 0 16.66 0 0 Z " fill="#90B7BF" transform="translate(206,165)"/>
<path d="M0 0 C14.19 0 28.38 0 43 0 C43 7.14753708 41.23313772 10.43936514 37 16 C31.7564057 20.95611654 26.20075591 23.2687257 19.04296875 23.1953125 C17.93115234 23.18886719 16.81933594 23.18242187 15.67382812 23.17578125 C14.52333984 23.15902344 13.37285156 23.14226562 12.1875 23.125 C11.01767578 23.11597656 9.84785156 23.10695312 8.64257812 23.09765625 C5.76163084 23.07413831 2.88078911 23.03826879 0 23 C0 15.41 0 7.82 0 0 Z " fill="#8DB5BD" transform="translate(233,133)"/>
<path d="M0 0 C14.19 0 28.38 0 43 0 C41.77853729 9.77170169 39.14024241 13.26785759 32.09765625 19.484375 C27.8803471 22.5315183 24.191313 23.24811603 19.04296875 23.1953125 C17.93115234 23.18886719 16.81933594 23.18242187 15.67382812 23.17578125 C14.52333984 23.15902344 13.37285156 23.14226562 12.1875 23.125 C11.01767578 23.11597656 9.84785156 23.10695312 8.64257812 23.09765625 C5.76163084 23.07413831 2.88078911 23.03826879 0 23 C0 15.41 0 7.82 0 0 Z " fill="#8DB5BD" transform="translate(233,191)"/>
<path d="M0 0 C1.32570511 0.00666183 1.32570511 0.00666183 2.67819214 0.01345825 C3.67907867 0.01360931 4.67996521 0.01376038 5.71118164 0.01391602 C7.33623123 0.02939987 7.33623123 0.02939987 8.99411011 0.04519653 C10.65456863 0.04944138 10.65456863 0.04944138 12.34857178 0.05377197 C15.89458898 0.06499384 19.44035636 0.09010213 22.98629761 0.11550903 C25.38603355 0.12553624 27.78577344 0.13466253 30.18551636 0.14285278 C36.07752911 0.16493971 41.96939552 0.19843697 47.86129761 0.24050903 C47.86129761 3.21050903 47.86129761 6.18050903 47.86129761 9.24050903 C33.67129761 9.24050903 19.48129761 9.24050903 4.86129761 9.24050903 C4.86129761 16.83050903 4.86129761 24.42050903 4.86129761 32.24050903 C1.89129761 32.24050903 -1.07870239 32.24050903 -4.13870239 32.24050903 C-4.18808867 28.00468576 -4.22441502 23.76901438 -4.24856567 19.5329895 C-4.25863202 18.09155356 -4.2722862 16.65013808 -4.2895813 15.20877075 C-4.31380251 13.1385697 -4.32517881 11.06863827 -4.33401489 8.99832153 C-4.34448853 7.75195923 -4.35496216 6.50559692 -4.36575317 5.22146606 C-4.10044773 1.73826238 -3.61984265 0.40707153 0 0 Z " fill="#FBFBFB" transform="translate(228.13870239257813,123.75949096679688)"/>
<path d="M0 0 C4.00073585 -0.10845368 7.998499 -0.18754625 12 -0.25 C13.12535156 -0.28351563 14.25070313 -0.31703125 15.41015625 -0.3515625 C23.60110887 -0.44736312 28.75224739 0.75868355 35.2421875 5.7109375 C35.78101563 6.26007813 36.31984375 6.80921875 36.875 7.375 C37.70644531 8.19097656 37.70644531 8.19097656 38.5546875 9.0234375 C40 11 40 11 42 17 C28.14 17 14.28 17 0 17 C0 11.39 0 5.78 0 0 Z " fill="#8DB5BD" transform="translate(233,165)"/>
<path d="M0 0 C3.56331377 -0.10807017 7.1233422 -0.18735316 10.6875 -0.25 C12.19860352 -0.30027344 12.19860352 -0.30027344 13.74023438 -0.3515625 C21.2503749 -0.45070627 21.2503749 -0.45070627 25.14453125 1.890625 C27.56306838 4.64011984 27.96272822 5.60491916 28.3125 9.3125 C27.95124058 13.57536111 26.98007946 15.01992054 24 18 C21.49502996 19.25248502 19.79146726 19.11374406 16.9921875 19.09765625 C16.00605469 19.09443359 15.01992187 19.09121094 14.00390625 19.08789062 C12.97136719 19.07951172 11.93882812 19.07113281 10.875 19.0625 C9.31458984 19.05573242 9.31458984 19.05573242 7.72265625 19.04882812 C5.14841313 19.03701967 2.57419947 19.01908385 0 19 C0 12.73 0 6.46 0 0 Z " fill="#FCFCFC" transform="translate(136,360)"/>
<path d="M0 0 C3.56331377 -0.10807017 7.1233422 -0.18735316 10.6875 -0.25 C12.19860352 -0.30027344 12.19860352 -0.30027344 13.74023438 -0.3515625 C21.2503749 -0.45070627 21.2503749 -0.45070627 25.14453125 1.890625 C27.56306838 4.64011984 27.96272822 5.60491916 28.3125 9.3125 C27.95124058 13.57536111 26.98007946 15.01992054 24 18 C21.49502996 19.25248502 19.79146726 19.11374406 16.9921875 19.09765625 C16.00605469 19.09443359 15.01992187 19.09121094 14.00390625 19.08789062 C12.97136719 19.07951172 11.93882813 19.07113281 10.875 19.0625 C9.31458984 19.05573242 9.31458984 19.05573242 7.72265625 19.04882812 C5.14841313 19.03701967 2.57419947 19.01908385 0 19 C0 12.73 0 6.46 0 0 Z " fill="#FCFCFC" transform="translate(111,308)"/>
<path d="M0 0 C3.39631472 -0.08107913 6.79068616 -0.14053944 10.1875 -0.1875 C11.14720703 -0.21263672 12.10691406 -0.23777344 13.09570312 -0.26367188 C22.09513128 -0.35709154 22.09513128 -0.35709154 26 3 C28.4915904 6.7373856 28.45793285 8.57331583 28 13 C26.20437595 15.75329021 24.94745078 17.52627461 22 19 C20.3325394 19.08426094 18.66174813 19.10725143 16.9921875 19.09765625 C16.00605469 19.09443359 15.01992187 19.09121094 14.00390625 19.08789062 C12.97136719 19.07951172 11.93882812 19.07113281 10.875 19.0625 C9.31458984 19.05573242 9.31458984 19.05573242 7.72265625 19.04882812 C5.14841313 19.03701967 2.57419947 19.01908385 0 19 C0 12.73 0 6.46 0 0 Z " fill="#FCFCFC" transform="translate(136,383)"/>
<path d="M0 0 C3.39631472 -0.08107913 6.79068616 -0.14053944 10.1875 -0.1875 C11.14720703 -0.21263672 12.10691406 -0.23777344 13.09570312 -0.26367188 C22.09513128 -0.35709154 22.09513128 -0.35709154 26 3 C28.13498775 6.20248163 28.27394539 6.81000694 27.9375 10.4375 C27.88464844 11.19933594 27.83179688 11.96117187 27.77734375 12.74609375 C26.56852395 16.25106374 25.26430807 17.20584557 22 19 C18.21489981 19.47823206 14.49473975 19.37666441 10.6875 19.25 C9.14739258 19.22292969 9.14739258 19.22292969 7.57617188 19.1953125 C5.05037929 19.14832101 2.52506863 19.07658169 0 19 C0 12.73 0 6.46 0 0 Z " fill="#FCFCFC" transform="translate(111,331)"/>
<path d="M0 0 C1.49609375 1.16796875 1.49609375 1.16796875 2.49609375 4.16796875 C3.15609375 4.16796875 3.81609375 4.16796875 4.49609375 4.16796875 C4.49609375 1.85796875 4.49609375 -0.45203125 4.49609375 -2.83203125 C5.48609375 -2.83203125 6.47609375 -2.83203125 7.49609375 -2.83203125 C7.49609375 9.37796875 7.49609375 21.58796875 7.49609375 34.16796875 C6.50609375 34.49796875 5.51609375 34.82796875 4.49609375 35.16796875 C4.00109375 31.70296875 4.00109375 31.70296875 3.49609375 28.16796875 C2.58859375 28.95171875 1.68109375 29.73546875 0.74609375 30.54296875 C-3.77254946 34.44543334 -7.27306329 35.5735615 -13.1953125 35.41796875 C-19.40529702 34.74548312 -23.57758892 31.85773667 -27.50390625 27.16796875 C-30.95806152 22.04629024 -31.33663117 17.1635882 -30.50390625 11.16796875 C-28.47576285 4.80003463 -25.10133356 1.2236415 -19.31640625 -2.08203125 C-12.32997455 -3.9450797 -6.37784629 -3.34933176 0 0 Z M-24.8984375 6.8125 C-27.55135715 10.96530355 -28.18018355 14.34949301 -27.50390625 19.16796875 C-26.05209885 23.50707851 -24.19941697 26.50557759 -20.87890625 29.66796875 C-15.18890717 32.19685723 -9.96660487 32.03447382 -4.12890625 29.98046875 C-0.2503968 27.30245032 2.00400964 24.64422108 3.49609375 20.16796875 C4.00861598 15.28640452 4.00682269 11.31710886 1.99609375 6.79296875 C-2.09304744 2.4993705 -6.16755309 0.54345408 -12.00390625 -0.39453125 C-17.31943197 0.45974967 -21.39036057 2.67552413 -24.8984375 6.8125 Z " fill="#121212" transform="translate(235.50390625,318.83203125)"/>
<path d="M0 0 C0.99 0.33 1.98 0.66 3 1 C3.33 13.54 3.66 26.08 4 39 C12.7588785 30.12238841 12.7588785 30.12238841 21.5012207 21.22851562 C22.60047622 20.12050016 23.70029158 19.0130397 24.80078125 17.90625 C25.36841187 17.32327148 25.93604248 16.74029297 26.52087402 16.13964844 C27.95797465 14.70159672 29.47315587 13.34238518 31 12 C31.99 12 32.98 12 34 12 C33.41889329 15.42754467 32.31446376 17.04538661 29.83984375 19.453125 C29.21142578 20.071875 28.58300781 20.690625 27.93554688 21.328125 C27.27619141 21.96234375 26.61683594 22.5965625 25.9375 23.25 C25.27427734 23.8996875 24.61105469 24.549375 23.92773438 25.21875 C22.29170683 26.8194676 20.64909088 28.41276193 19 30 C23.14682336 34.96571894 27.49934357 39.48041325 32.2421875 43.88671875 C34 46 34 46 34 50 C28.77345099 48.52357373 25.83173561 45.17768064 22.1875 41.375 C21.2912793 40.45847656 21.2912793 40.45847656 20.37695312 39.5234375 C18.91104894 38.02235161 17.45457007 36.51207138 16 35 C12.68580902 36.44902969 10.43407408 38.2680214 7.875 40.8125 C7.19179688 41.47894531 6.50859375 42.14539063 5.8046875 42.83203125 C3.89065763 45.13135285 2.95430817 47.18134751 2 50 C1.01 49.67 0.02 49.34 -1 49 C-1.0252689 42.18238106 -1.04283244 35.36477411 -1.05493164 28.54711914 C-1.05997333 26.22582549 -1.06680651 23.90453503 -1.07543945 21.58325195 C-1.08751225 18.25471205 -1.09322979 14.92621398 -1.09765625 11.59765625 C-1.10281754 10.55287613 -1.10797882 9.50809601 -1.11329651 8.43165588 C-1.11337204 7.47073532 -1.11344757 6.50981476 -1.11352539 5.51977539 C-1.115746 4.66928116 -1.11796661 3.81878693 -1.12025452 2.94252014 C-1 1 -1 1 0 0 Z " fill="#181818" transform="translate(282,356)"/>
<path d="M0 0 C2.16286451 1.20378408 3.64082557 2.21045954 5.203125 4.12890625 C6.203125 7.94140625 6.203125 7.94140625 6.203125 11.12890625 C5.213125 10.79890625 4.223125 10.46890625 3.203125 10.12890625 C2.97625 9.51015625 2.749375 8.89140625 2.515625 8.25390625 C0.7575932 5.40756904 -1.41057711 4.69173454 -4.515625 3.66796875 C-11.12246544 2.1067633 -16.96420273 2.60500009 -22.796875 6.12890625 C-23.84855027 8.70623539 -23.84855027 8.70623539 -23.796875 11.12890625 C-19.62944901 14.43410617 -16.48597975 15.18718042 -11.19726562 15.62182617 C0.84772796 16.71172852 0.84772796 16.71172852 5.1796875 21.421875 C7.12019939 24.65853033 7.10853329 26.50727307 6.203125 30.12890625 C2.83088013 34.29516999 -0.4777695 36.40861071 -5.796875 37.12890625 C-13.27468605 37.7580738 -19.57886228 37.67943185 -25.796875 33.12890625 C-27.796875 31.12890625 -27.796875 31.12890625 -28.796875 29.12890625 C-28.796875 27.80890625 -28.796875 26.48890625 -28.796875 25.12890625 C-26.921875 25.37890625 -26.921875 25.37890625 -24.796875 26.12890625 C-24.508125 26.76828125 -24.219375 27.40765625 -23.921875 28.06640625 C-22.9283419 30.4008547 -22.9283419 30.4008547 -20.1328125 31.234375 C-14.35132389 32.78468049 -7.27675021 33.56583856 -1.62109375 31.23046875 C0.18277207 30.07495751 0.18277207 30.07495751 2.203125 28.12890625 C2.08134812 26.21424258 2.08134812 26.21424258 1.203125 24.12890625 C-3.41198295 20.58422258 -8.24822052 20.43553472 -13.82617188 20.04492188 C-19.77099604 19.48706634 -23.54684367 17.45393862 -27.671875 13.19140625 C-29.18752751 10.41270998 -29.53951899 9.24801099 -28.796875 6.12890625 C-21.49879056 -1.92817897 -10.20825005 -3.17938514 0 0 Z " fill="#151515" transform="translate(358.796875,368.87109375)"/>
<path d="M0 0 C4.16795036 3.17690439 6.76859606 7.2076713 7.7578125 12.33984375 C8.56151117 18.44795365 7.74701822 22.55945398 4.1875 27.6171875 C0.93320855 31.53834195 -3.20307226 34.90728946 -8.35546875 35.640625 C-15.01107839 35.67609006 -19.76901422 34.41955764 -24.9921875 30.02734375 C-29.36524957 24.80396405 -30.81723635 20.61631809 -30.59375 13.87109375 C-29.850732 8.52136412 -27.63833903 4.70019652 -23.8046875 0.96484375 C-16.2777124 -3.80835997 -7.90555007 -4.49688172 0 0 Z M-24.63671875 6.984375 C-27.2896384 11.13717855 -27.9184648 14.52136801 -27.2421875 19.33984375 C-25.7903801 23.67895351 -23.93769822 26.67745259 -20.6171875 29.83984375 C-14.92718842 32.36873223 -9.70488612 32.20634882 -3.8671875 30.15234375 C0.01132195 27.47432532 2.26572839 24.81609608 3.7578125 20.33984375 C4.27033473 15.45827952 4.26854144 11.48898386 2.2578125 6.96484375 C-1.83132869 2.6712455 -5.90583434 0.71532908 -11.7421875 -0.22265625 C-17.05771322 0.63162467 -21.12864182 2.84739913 -24.63671875 6.984375 Z " fill="#161616" transform="translate(384.2421875,318.66015625)"/>
<path d="M0 0 C4.16795036 3.17690439 6.76859606 7.2076713 7.7578125 12.33984375 C8.56151117 18.44795365 7.74701822 22.55945398 4.1875 27.6171875 C0.93320855 31.53834195 -3.20307226 34.90728946 -8.35546875 35.640625 C-15.01107839 35.67609006 -19.76901422 34.41955764 -24.9921875 30.02734375 C-29.36524957 24.80396405 -30.81723635 20.61631809 -30.59375 13.87109375 C-29.850732 8.52136412 -27.63833903 4.70019652 -23.8046875 0.96484375 C-16.2777124 -3.80835997 -7.90555007 -4.49688172 0 0 Z M-23.79296875 6.140625 C-26.83405197 10.55233727 -28.11724646 13.89503245 -27.2421875 19.33984375 C-25.77951282 23.67883959 -23.94174113 26.6736022 -20.6171875 29.83984375 C-14.92718842 32.36873223 -9.70488612 32.20634882 -3.8671875 30.15234375 C0.01132195 27.47432532 2.26572839 24.81609608 3.7578125 20.33984375 C4.27033473 15.45827952 4.26854144 11.48898386 2.2578125 6.96484375 C-1.84858721 2.65312405 -5.91815189 0.66602419 -11.8046875 -0.16015625 C-16.93560641 0.58615923 -20.44309255 2.25071838 -23.79296875 6.140625 Z " fill="#151515" transform="translate(260.2421875,370.66015625)"/>
<path d="M0 0 C4.16795036 3.17690439 6.76859606 7.2076713 7.7578125 12.33984375 C8.56151117 18.44795365 7.74701822 22.55945398 4.1875 27.6171875 C0.93320855 31.53834195 -3.20307226 34.90728946 -8.35546875 35.640625 C-15.01107839 35.67609006 -19.76901422 34.41955764 -24.9921875 30.02734375 C-29.36524957 24.80396405 -30.81723635 20.61631809 -30.59375 13.87109375 C-29.850732 8.52136412 -27.63833903 4.70019652 -23.8046875 0.96484375 C-16.2777124 -3.80835997 -7.90555007 -4.49688172 0 0 Z M-23.79296875 6.140625 C-26.83405197 10.55233727 -28.11724646 13.89503245 -27.2421875 19.33984375 C-25.77951282 23.67883959 -23.94174113 26.6736022 -20.6171875 29.83984375 C-14.92718842 32.36873223 -9.70488612 32.20634882 -3.8671875 30.15234375 C0.01132195 27.47432532 2.26572839 24.81609608 3.7578125 20.33984375 C4.27033473 15.45827952 4.26854144 11.48898386 2.2578125 6.96484375 C-1.84858721 2.65312405 -5.91815189 0.66602419 -11.8046875 -0.16015625 C-16.93560641 0.58615923 -20.44309255 2.25071838 -23.79296875 6.140625 Z " fill="#151515" transform="translate(211.2421875,370.66015625)"/>
<path d="M0 0 C3.0097291 1.77847628 5.41086334 3.82172667 7 7 C7.89373297 13.70299728 7.89373297 13.70299728 5.71875 16.859375 C2.73864959 19.7040163 0.09876729 21.39083933 -4.0625 21.6875 C-9.00169449 20.82510096 -10.54586416 19.53838305 -14 16 C-15.64216492 12.71567016 -15.78273159 9.52229215 -15 6 C-11.11062264 0.35565968 -6.55885521 -1.14519694 0 0 Z " fill="#FBFCFC" transform="translate(250,431)"/>
<path d="M0 0 C3.13523328 1.31395699 4.54283628 2.54283628 7 5 C7 5.99 7 6.98 7 8 C4.37685298 7.49554865 2.60394745 6.77497014 0.25 5.4375 C-3.70120244 3.68985277 -6.74694804 3.22748956 -11 4 C-16.10209922 6.69544864 -19.17381037 9.5214311 -21 15 C-21.36617651 20.58419173 -21.2546741 24.22647798 -18 29 C-13.72047978 32.9663846 -10.10375843 33.6100908 -4.47265625 33.40625 C-0.65940226 32.77974382 1.80263406 31.13157729 5 29 C5.66 29 6.32 29 7 29 C6.9375 31.25 6.9375 31.25 6 34 C1.08282468 37.95511928 -3.09871912 38.63977867 -9.3515625 38.3828125 C-14.7224882 37.60648401 -18.25645994 35.06110082 -21.8125 31 C-25.94415412 25.33373149 -27.02010631 20.99351232 -26 14 C-21.22584194 2.17729956 -12.08090641 -1.30565616 0 0 Z " fill="#191919" transform="translate(332,316)"/>
<path d="M0 0 C5.61 0 11.22 0 17 0 C17.33 15.18 17.66 30.36 18 46 C24.93 46.495 24.93 46.495 32 47 C31.67 47.99 31.34 48.98 31 50 C20.77 50 10.54 50 0 50 C0 49.01 0 48.02 0 47 C4.62 47 9.24 47 14 47 C14 32.81 14 18.62 14 4 C9.38 4 4.76 4 0 4 C0 2.68 0 1.36 0 0 Z " fill="#0A0A0A" transform="translate(159,304)"/>
<path d="M0 0 C4.59241881 2.65002784 7.99735722 6.06483985 10 11 C10.22705078 13.84082031 10.22705078 13.84082031 10.1953125 17.078125 C10.18886719 18.23828125 10.18242187 19.3984375 10.17578125 20.59375 C10.15902344 21.8003125 10.14226562 23.006875 10.125 24.25 C10.11597656 25.47203125 10.10695313 26.6940625 10.09765625 27.953125 C10.07409513 30.96894782 10.04119706 33.98437492 10 37 C8.515 37.495 8.515 37.495 7 38 C6.9906543 37.27409668 6.98130859 36.54819336 6.97167969 35.80029297 C6.91778719 32.49118786 6.83417561 29.18346762 6.75 25.875 C6.73582031 24.73289062 6.72164063 23.59078125 6.70703125 22.4140625 C6.52177112 16.04111399 6.36196036 11.80871608 2 7 C-0.92672672 4.62697833 -2.68309204 4.04033374 -6.4375 3.5625 C-10.68345227 4.08393274 -12.73817577 5.26917041 -16 8 C-18.09700365 11.25802106 -18.29678628 14.02835177 -18.4140625 17.859375 C-18.45273437 18.97441406 -18.49140625 20.08945312 -18.53125 21.23828125 C-18.5621875 22.39714844 -18.593125 23.55601562 -18.625 24.75 C-18.66367187 25.92433594 -18.70234375 27.09867187 -18.7421875 28.30859375 C-18.8363982 31.20557268 -18.92201602 34.10254626 -19 37 C-20.485 37.495 -20.485 37.495 -22 38 C-22.11647041 33.45855006 -22.18734502 28.91748606 -22.25 24.375 C-22.28351563 23.08980469 -22.31703125 21.80460937 -22.3515625 20.48046875 C-22.47361714 8.70219612 -22.47361714 8.70219612 -18 4 C-12.81544556 -0.92532672 -6.80183222 -1.34434118 0 0 Z " fill="#0E0E0E" transform="translate(280,316)"/>
<path d="M0 0 C0.01458252 0.92337158 0.02916504 1.84674316 0.04418945 2.7980957 C0.10526308 6.22577204 0.1794161 9.65264662 0.26245117 13.07983398 C0.29569423 14.56279854 0.32372823 16.04588944 0.34643555 17.52905273 C0.37999468 19.66184293 0.43230638 21.79347612 0.48828125 23.92578125 C0.51446533 25.20880127 0.54064941 26.49182129 0.56762695 27.8137207 C0.72353238 30.9877637 0.72353238 30.9877637 2.53198242 32.94213867 C3.01642822 33.29123291 3.50087402 33.64032715 4 34 C1.29120665 35.35439668 -1.00933268 35.06501451 -4 35 C-4.33 34.34 -4.66 33.68 -5 33 C-5.66 32.67 -6.32 32.34 -7 32 C-6.67644531 31.45601563 -6.35289062 30.91203125 -6.01953125 30.3515625 C-4.80452989 27.54914557 -4.69981716 25.42144329 -4.6875 22.375 C-4.67074219 21.41335938 -4.65398437 20.45171875 -4.63671875 19.4609375 C-4.75660156 18.64882813 -4.87648437 17.83671875 -5 17 C-7.75698184 14.71861055 -7.75698184 14.71861055 -10.5625 15.1875 C-13.33255117 15.83372442 -13.33255117 15.83372442 -15 19 C-15.57384287 23.04671014 -15.63004923 26.771404 -13.75 30.4375 C-11.92825697 32.06405627 -10.25167138 33.06827391 -8 34 C-15.2 33.64 -15.2 33.64 -18.5 31 C-20.54349975 26.91300049 -20.82908433 23.48680929 -20 19 C-18.20606332 16.12970131 -17.01736724 14.50868362 -14 13 C-7.46666667 12.76666667 -7.46666667 12.76666667 -5 14 C-4.91878076 12.39667209 -4.86070866 10.79215974 -4.8125 9.1875 C-4.77769531 8.29417969 -4.74289063 7.40085937 -4.70703125 6.48046875 C-5.04918998 3.58352485 -5.75393573 2.77444972 -8 1 C-2.25 0 -2.25 0 0 0 Z " fill="#93B9C2" transform="translate(204,418)"/>
<path d="M0 0 C3.14933544 0.03957872 4.00947238 0.18788067 6.6875 2.0625 C8.1875 4.3125 8.1875 4.3125 8.1875 8.3125 C3.5675 8.3125 -1.0525 8.3125 -5.8125 8.3125 C-5.02410595 13.67348665 -5.02410595 13.67348665 -2.0625 17.875 C2.39112101 18.74098186 5.46879737 17.79163509 9.1875 15.3125 C8.03576645 17.78050047 7.13966435 19.36033565 5.1875 21.3125 C0.61827852 22.08450992 -2.86269219 21.90612988 -6.8125 19.4375 C-10.11753543 15.92589986 -10.19836099 13.24822482 -10.17578125 8.57421875 C-9.6043883 5.01683683 -7.5612971 3.45790262 -4.8125 1.3125 C-3.8125 0.3125 -3.8125 0.3125 0 0 Z " fill="#97BCC4" transform="translate(170.8125,430.6875)"/>
<path d="M0 0 C3.0097291 1.77847628 5.41086334 3.82172667 7 7 C7.89373297 13.70299728 7.89373297 13.70299728 5.71875 16.859375 C2.73864959 19.7040163 0.09876729 21.39083933 -4.0625 21.6875 C-9.00169449 20.82510096 -10.54586416 19.53838305 -14 16 C-15.64216492 12.71567016 -15.78273159 9.52229215 -15 6 C-11.11062264 0.35565968 -6.55885521 -1.14519694 0 0 Z M-8.75 2.375 C-11.70863468 5.82674046 -11.72100653 8.13471067 -11.484375 12.578125 C-11.10311974 15.28357928 -11.10311974 15.28357928 -8.875 18.1875 C-6.12504948 20.2553435 -6.12504948 20.2553435 -2.875 20.125 C0.0865018 19.21144569 0.0865018 19.21144569 1.875 16.9375 C3.32263427 13.15756606 3.86870244 9.98959641 3 6 C0.91542329 2.91422496 0.91542329 2.91422496 -2 1 C-5.91614745 0.7018576 -5.91614745 0.7018576 -8.75 2.375 Z " fill="#97BCC4" transform="translate(250,431)"/>
<path d="M0 0 C0.33 10.89 0.66 21.78 1 33 C1.66 33.33 2.32 33.66 3 34 C-0.3 34 -3.6 34 -7 34 C-6.34 33.34 -5.68 32.68 -5 32 C-4.68782681 29.02132771 -4.68782681 29.02132771 -4.734375 25.53125 C-4.73179687 24.23832031 -4.72921875 22.94539063 -4.7265625 21.61328125 C-4.73075195 20.93861816 -4.73494141 20.26395508 -4.73925781 19.56884766 C-4.7499593 17.50783843 -4.73936057 15.44770081 -4.7265625 13.38671875 C-4.73042969 11.44732422 -4.73042969 11.44732422 -4.734375 9.46875 C-4.73663086 8.27701172 -4.73888672 7.08527344 -4.74121094 5.85742188 C-4.70439116 2.86864566 -4.70439116 2.86864566 -7 1 C-2.25 0 -2.25 0 0 0 Z " fill="#90B8C0" transform="translate(318,418)"/>
<path d="M0 0 C0.33 0.99 0.66 1.98 1 3 C-1.97 2.505 -1.97 2.505 -5 2 C-7.38081145 5.57121718 -7.26906871 7.26674633 -7.25 11.5 C-7.25515625 12.6446875 -7.2603125 13.789375 -7.265625 14.96875 C-7.22885568 18.17666163 -7.22885568 18.17666163 -5 21 C-8.3 21 -11.6 21 -15 21 C-14.34 20.34 -13.68 19.68 -13 19 C-12.80147898 16.29077199 -12.72160523 13.70696821 -12.75 11 C-12.74226563 10.26265625 -12.73453125 9.5253125 -12.7265625 8.765625 C-12.58991135 4.41578097 -12.58991135 4.41578097 -15 1 C-9.97345339 -0.11701036 -5.1289369 0 0 0 Z " fill="#90B7C0" transform="translate(275,431)"/>
<path d="M0 0 C0.33 0 0.66 0 1 0 C1 1.98 1 3.96 1 6 C2.98 6 4.96 6 7 6 C7 6.33 7 6.66 7 7 C5.02 7 3.04 7 1 7 C1.08691739 9.77236494 1.19377361 12.54147078 1.3125 15.3125 C1.33505859 16.09818359 1.35761719 16.88386719 1.38085938 17.69335938 C1.41630859 18.45068359 1.45175781 19.20800781 1.48828125 19.98828125 C1.51446533 20.68477783 1.54064941 21.38127441 1.56762695 22.09887695 C2.11223768 24.49350359 3.15829162 25.43272547 5 27 C-1.875 26.125 -1.875 26.125 -3 25 C-3.08631874 23.65732587 -3.10706473 22.31025678 -3.09765625 20.96484375 C-3.09443359 20.15595703 -3.09121094 19.34707031 -3.08789062 18.51367188 C-3.07951172 17.66353516 -3.07113281 16.81339844 -3.0625 15.9375 C-3.05798828 15.08349609 -3.05347656 14.22949219 -3.04882812 13.34960938 C-3.03700373 11.23304337 -3.01906769 9.11651315 -3 7 C-3.66 6.67 -4.32 6.34 -5 6 C-4.01 5.67 -3.02 5.34 -2 5 C-0.78130071 2.49552484 -0.78130071 2.49552484 0 0 Z " fill="#92B9C2" transform="translate(226,425)"/>
<path d="M0 0 C0.79148437 -0.02578125 1.58296875 -0.0515625 2.3984375 -0.078125 C4.625 0.25 4.625 0.25 6.37890625 1.26171875 C8.33697063 4.38602837 8.12095899 7.72879156 8.1875 11.3125 C7.99863016 16.77810091 7.99863016 16.77810091 10.625 21.25 C4.875 20.375 4.875 20.375 2.625 19.25 C3.12 14.795 3.12 14.795 3.625 10.25 C2.965 9.92 2.305 9.59 1.625 9.25 C1.955 8.92 2.285 8.59 2.625 8.25 C2.66563832 6.58382885 2.667721 4.91611905 2.625 3.25 C1.305 2.92 -0.015 2.59 -1.375 2.25 C-2.055625 3.24 -2.055625 3.24 -2.75 4.25 C-3.28625 4.91 -3.8225 5.57 -4.375 6.25 C-5.035 6.25 -5.695 6.25 -6.375 6.25 C-5.27157757 0.10236073 -5.27157757 0.10236073 0 0 Z " fill="#97BCC4" transform="translate(297.375,430.75)"/>
<path d="M0 0 C0.28571429 7.42857143 0.28571429 7.42857143 -2 11 C-5.375 11.125 -5.375 11.125 -9 11 C-11 9 -11 9 -11.125 5.875 C-11.08375 4.92625 -11.0425 3.9775 -11 3 C-7.14243493 0.84694043 -4.44870215 -0.39253254 0 0 Z " fill="#FCFDFC" transform="translate(301,441)"/>
<path d="M0 0 C0.01981934 0.56509277 0.03963867 1.13018555 0.06005859 1.71240234 C0.15518236 4.26707997 0.26491058 6.82092541 0.375 9.375 C0.4059375 10.26445312 0.436875 11.15390625 0.46875 12.0703125 C0.50742187 12.92109375 0.54609375 13.771875 0.5859375 14.6484375 C0.6173584 15.43395996 0.6487793 16.21948242 0.68115234 17.02880859 C0.8399465 19.23002939 0.8399465 19.23002939 3 21 C-0.3 21 -3.6 21 -7 21 C-6.34 20.34 -5.68 19.68 -5 19 C-4.80147898 16.29077199 -4.72160523 13.70696821 -4.75 11 C-4.74226563 10.26265625 -4.73453125 9.5253125 -4.7265625 8.765625 C-4.58991135 4.41578097 -4.58991135 4.41578097 -7 1 C-4.53721199 -0.231394 -2.7204945 -0.07159196 0 0 Z " fill="#91B8C1" transform="translate(284,431)"/>
<path d="M0 0 C0.01981934 0.56509277 0.03963867 1.13018555 0.06005859 1.71240234 C0.15518236 4.26707997 0.26491058 6.82092541 0.375 9.375 C0.4059375 10.26445312 0.436875 11.15390625 0.46875 12.0703125 C0.50742188 12.92109375 0.54609375 13.771875 0.5859375 14.6484375 C0.6173584 15.43395996 0.6487793 16.21948242 0.68115234 17.02880859 C0.8399465 19.23002939 0.8399465 19.23002939 3 21 C-0.3 21 -3.6 21 -7 21 C-6.34 20.34 -5.68 19.68 -5 19 C-4.80147898 16.29077199 -4.72160523 13.70696821 -4.75 11 C-4.74226562 10.26265625 -4.73453125 9.5253125 -4.7265625 8.765625 C-4.58991135 4.41578097 -4.58991135 4.41578097 -7 1 C-2.25 0 -2.25 0 0 0 Z " fill="#8FB7C0" transform="translate(216,431)"/>
<path d="M0 0 C-0.66 0.391875 -1.32 0.78375 -2 1.1875 C-4.29166667 2.85416667 -4.29166667 2.85416667 -4.25 5.6875 C-4.1675 6.450625 -4.085 7.21375 -4 8 C-2.35 8 -0.7 8 1 8 C0.67 8.66 0.34 9.32 0 10 C-3.375 10.125 -3.375 10.125 -7 10 C-9 8 -9 8 -9.125 4.875 C-9.08375 3.92625 -9.0425 2.9775 -9 2 C-3.375 -1.125 -3.375 -1.125 0 0 Z " fill="#9EC1C8" transform="translate(299,442)"/>
<path d="M0 0 C0.33 1.65 0.66 3.3 1 5 C-2.3 5 -5.6 5 -9 5 C-6.96456769 -0.67013285 -5.87860125 -1.3923003 0 0 Z " fill="#FBFCFC" transform="translate(174,433)"/>
<path d="M0 0 C3 0 6 0 9 0 C9.33 0.99 9.66 1.98 10 3 C9.071875 2.773125 8.14375 2.54625 7.1875 2.3125 C4.03173152 1.63680017 4.03173152 1.63680017 2.125 3.4375 C1.75375 3.953125 1.3825 4.46875 1 5 C0.67 3.35 0.34 1.7 0 0 Z " fill="#ACCAD0" transform="translate(266,431)"/>
</svg>
